<svg width="28" height="28" viewBox="0 0 28 28" fill="none" xmlns="http://www.w3.org/2000/svg">
<path d="M1.33267 18.8755L0 16.3332L1.27116 15.6673C3.23367 14.638 5.35692 13.389 5.71039 11.5815C5.98512 10.1759 5.2093 8.38065 3.40425 6.24591L2.47754 5.15026L4.66885 3.29682L5.59557 4.39248C8.0239 7.26448 8.98342 9.79615 8.52662 12.1318C7.88038 15.4426 4.44661 17.2419 2.60301 18.2088L1.33267 18.8755ZM16.334 28L15.6681 26.7288C14.6389 24.7655 13.3898 22.6431 11.5823 22.2896C10.1775 22.0141 8.38147 22.7907 6.24673 24.5957L5.15108 25.5225L3.29764 23.3311L4.3933 22.4044C7.26448 19.9753 9.79369 19.0141 12.1326 19.4734C15.4434 20.1196 17.2427 23.5526 18.2096 25.397L18.8755 26.6682L16.334 28ZM23.3303 24.7015L22.4036 23.6059C19.9745 20.7339 19.0158 18.2022 19.4726 15.8657C20.1188 12.5558 23.5518 10.7565 25.3962 9.78958L26.6673 9.12366L28 11.666L26.7288 12.3319C24.7655 13.3611 22.6431 14.6102 22.2896 16.4168C22.0149 17.8233 22.7907 19.6177 24.5949 21.7524L25.5216 22.8481L23.3303 24.7015ZM17.009 8.63734C16.6227 8.63734 16.243 8.60043 15.8674 8.52744C12.5566 7.8812 10.7573 4.44743 9.79041 2.60383L9.12448 1.33267L11.6668 0L12.3335 1.27116C13.3628 3.23367 14.6118 5.35692 16.4185 5.71039C17.8217 5.9843 19.6185 5.21012 21.7541 3.40425L22.8497 2.47754L24.7032 4.66885L23.6075 5.59557C21.1956 7.63435 19.0248 8.63734 17.009 8.63734Z" fill="#BE1931"/>
</svg>
