<svg width="27" height="28" viewBox="0 0 27 28" fill="none" xmlns="http://www.w3.org/2000/svg">
<path d="M26.4444 20.2222C26.4444 21.9403 25.0514 23.3333 23.3333 23.3333H3.11111C1.393 23.3333 0 21.9403 0 20.2222V4.91011C0 3.192 4.50411 0 6.22222 0H22.2639C24.6703 0 26.4444 1.79822 26.4444 4.18056V20.2222Z" fill="#226699"/>
<path d="M24.889 23.3335C24.889 25.0516 23.496 26.4446 21.7779 26.4446H4.66678C2.94867 26.4446 1.55567 25.0516 1.55567 23.3335V4.66681C1.55567 1.46314 1.53933 1.5557 5.44455 1.5557H21.7779C23.496 1.5557 24.889 2.9487 24.889 4.66681V23.3335Z" fill="#CCD6DD"/>
<path d="M23.3333 24.1111C23.3333 25.3999 22.2888 26.4444 21 26.4444H2.33333C1.04456 26.4444 0 25.3999 0 24.1111V5.44442C0 4.15564 1.04456 3.11108 2.33333 3.11108H21C22.2888 3.11108 23.3333 4.15564 23.3333 5.44442V24.1111Z" fill="#E1E8ED"/>
<path d="M23.3334 24.889C23.3334 26.6071 21.9404 28.0001 20.2223 28.0001H3.88894C2.17083 28.0001 0.777832 26.6071 0.777832 24.889V7.77786C0.777832 6.05975 2.17083 4.66675 3.88894 4.66675H20.2223C21.9404 4.66675 23.3334 6.05975 23.3334 7.77786V24.889Z" fill="#3B88C3"/>
<path d="M21.7778 24.8888C21.7778 26.6069 20.3848 27.9999 18.6667 27.9999H3.88894C2.17083 27.9999 0.777832 26.6069 0.777832 24.8888V9.33328C0.777832 7.61517 2.17083 6.22217 3.88894 6.22217H18.9273C20.6454 6.22217 21.7778 7.35461 21.7778 9.07272V24.8888Z" fill="#55ACEE"/>
<path d="M3.88889 4.66667C2.576 4.66667 2.54256 3.17178 3.11111 2.52778C3.75822 1.79589 4.76389 1.55556 6.56289 1.55556H7.77778V0H5.663C2.576 0 0 1.94444 0 4.18056V24.8889C0 26.607 1.393 28 3.11111 28H4.66667V4.66667H3.88889Z" fill="#226699"/>
</svg>
