<svg width="29" height="28" viewBox="0 0 29 28" fill="none" xmlns="http://www.w3.org/2000/svg">
<path d="M14.2313 19.4453C2.71817 19.4453 0 23.1328 0 24.8374C0 26.542 1.41601 27.9999 3.1625 27.9999H25.3C27.0465 27.9999 28.4625 26.5364 28.4625 24.8374C28.4625 23.1383 25.7443 19.4453 14.2313 19.4453Z" fill="#78B159"/>
<path d="M22.773 21.7937C22.773 23.0041 21.791 23.4382 20.5806 23.4382C19.3701 23.4382 18.3882 23.0049 18.3882 21.7937L18.9361 16.861C18.9361 15.6505 19.3694 15.7644 20.5806 15.7644C21.791 15.7644 22.2251 15.6497 22.2251 16.861L22.773 21.7937Z" fill="#662113"/>
<path d="M27.5677 15.1263C23.9387 11.8571 22.4689 7.17578 20.5809 7.17578C18.6929 7.17578 17.2231 11.8571 13.595 15.1263C12.0699 16.5004 12.7964 17.295 14.8868 17.1361C16.7504 16.9946 18.4929 16.5502 20.5809 16.5502C22.669 16.5502 24.4123 16.9953 26.275 17.1361C28.3654 17.295 29.092 16.4996 27.5677 15.1263Z" fill="#5C913B"/>
<path d="M26.3886 13.8304C23.6001 11.1415 22.0331 7.28955 20.5807 7.28955C19.1291 7.28955 17.5621 11.1415 14.7735 13.8304C12.5574 15.9675 17.6775 16.4466 20.5807 13.8304C23.4831 16.4466 28.6039 15.9675 26.3886 13.8304Z" fill="#3E721D"/>
<path d="M26.3886 11.6522C23.6001 9.13964 22.0331 5.5415 20.5807 5.5415C19.1291 5.5415 17.5621 9.13964 14.7735 11.6522C12.5574 13.6486 17.6775 14.0961 20.5807 11.6522C23.4831 14.0961 28.6039 13.6478 26.3886 11.6522Z" fill="#5C913B"/>
<path d="M25.1149 9.8678C22.9383 7.90626 21.7144 5.09717 20.5806 5.09717C19.4477 5.09717 18.2238 7.90626 16.0464 9.8678C14.3165 11.4261 18.3131 11.7764 20.5806 9.8678C22.8474 11.7756 26.8448 11.4261 25.1149 9.8678Z" fill="#3E721D"/>
<path d="M25.1149 8.23523C22.9383 6.27369 21.7144 3.4646 20.5806 3.4646C19.4477 3.4646 18.2238 6.27369 16.0464 8.23523C14.3165 9.79356 18.3131 10.1438 20.5806 8.23523C22.8474 10.1438 26.8448 9.79435 25.1149 8.23523Z" fill="#5C913B"/>
<path d="M24.2395 6.78608C22.4828 5.20325 21.4953 2.93652 20.5805 2.93652C19.6658 2.93652 18.6783 5.20325 16.9215 6.78608C15.5252 8.04396 18.751 8.32622 20.5805 6.78608C22.41 8.32622 25.6366 8.04396 24.2395 6.78608Z" fill="#3E721D"/>
<path d="M24.2395 5.55732C22.4828 3.97449 21.4953 1.70776 20.5805 1.70776C19.6658 1.70776 18.6783 3.97449 16.9215 5.55732C15.5252 6.8152 18.751 7.09746 20.5805 5.55732C22.41 7.09746 25.6366 6.8152 24.2395 5.55732Z" fill="#5C913B"/>
<path d="M23.3652 3.74836C22.0291 2.54424 21.2772 0.819092 20.5807 0.819092C19.8849 0.819092 19.133 2.54424 17.7961 3.74836C16.7335 4.70581 19.1884 4.92007 20.5807 3.74836C21.973 4.92086 24.4278 4.70581 23.3652 3.74836Z" fill="#3E721D"/>
<path d="M23.3652 2.92927C22.0291 1.72514 21.2772 0 20.5807 0C19.8849 0 19.133 1.72514 17.7961 2.92927C16.7335 3.88671 19.1884 4.10097 20.5807 2.92927C21.973 4.10097 24.4278 3.88671 23.3652 2.92927Z" fill="#5C913B"/>
<path d="M11.9393 25.628C11.6041 25.628 11.3052 25.4169 11.193 25.1015L7.23034 14.0066C7.14337 13.7639 7.18053 13.5101 7.32917 13.2982C7.47781 13.0887 7.71974 12.978 7.97748 12.978H17.2744C17.5915 12.978 17.8785 13.152 18.0034 13.4437L22.7582 24.5306C22.8634 24.7757 22.8381 25.0532 22.6918 25.2754C22.5432 25.4984 22.2949 25.628 22.0285 25.628H11.9393Z" fill="#F4900C"/>
<path d="M3.22172 25.6281C2.95528 25.6281 2.70623 25.4937 2.55997 25.2723C2.4137 25.0493 2.38919 24.7679 2.49355 24.5228L7.25154 13.4208C7.37567 13.1299 7.66345 12.9409 7.9797 12.9409C8.29674 12.9409 8.58453 13.1307 8.70866 13.4208L13.4666 24.522C13.5718 24.7679 13.5457 25.0486 13.3994 25.2715C13.2532 25.4937 13.0041 25.6281 12.7377 25.6281H3.22172Z" fill="#FFCC4D"/>
<path d="M7.9776 14.9041L6.3916 25.6281H9.56201L7.9776 14.9041Z" fill="#292F33"/>
<path d="M11.1692 24.748L11.5234 25.628H9.56182L11.1692 24.748ZM4.78486 24.748L4.43066 25.628H6.39141L4.78486 24.748Z" fill="#FFAC33"/>
<path d="M9.56177 25.6282C9.56177 25.6282 11.0031 25.2605 11.7075 24.6098L7.97736 14.9041L9.56177 25.6282ZM6.39136 25.6282C6.39136 25.6282 4.95005 25.2605 4.24561 24.6098L7.97657 14.9033L6.39136 25.6282Z" fill="#FFE8B6"/>
<path d="M10.7722 3.98473C10.7579 3.98473 10.7453 3.98947 10.7311 3.98947C10.7579 3.85981 10.7722 3.72619 10.7722 3.58862C10.7722 2.49677 9.88746 1.61206 8.79561 1.61206C8.09116 1.61206 7.47764 1.98286 7.12739 2.53788C6.90839 2.45408 6.67278 2.40348 6.42373 2.40348C5.41569 2.40348 4.59344 3.16011 4.47168 4.13495C4.24872 4.04561 4.01074 3.98473 3.75537 3.98473C2.66352 3.98473 1.77881 4.86944 1.77881 5.96129C1.77881 7.05314 2.66352 7.93785 3.75537 7.93785H10.7722C11.864 7.93785 12.7487 7.05314 12.7487 5.96129C12.7487 4.86944 11.864 3.98473 10.7722 3.98473Z" fill="#E1E8ED"/>
</svg>
