<svg width="29" height="28" viewBox="0 0 29 28" fill="none" xmlns="http://www.w3.org/2000/svg">
<path d="M2.26711 20.4692L4.95971 23.1618L4.23556 23.8852L1.54297 21.1934L2.26711 20.4692Z" fill="#77B255"/>
<path d="M4.88986 23.0901L7.58167 25.7827L6.85753 26.5068L4.1665 23.8142L4.88986 23.0901Z" fill="#FFD983"/>
<path d="M4.82034 18.8928L7.51293 21.5854L6.78879 22.3096L4.09619 19.617L4.82034 18.8928Z" fill="#FFAC33"/>
<path d="M6.95822 21.0309L9.65082 23.7235L8.92667 24.4476L6.23486 21.755L6.95822 21.0309ZM10.025 13.6882L12.7169 16.3808L11.9927 17.105L9.30091 14.4124L10.025 13.6882Z" fill="#EA596E"/>
<path d="M12.1621 15.8269L14.8547 18.5187L14.1306 19.2429L11.438 16.551L12.1621 15.8269Z" fill="#FFAC33"/>
<path d="M11.6438 11.1572L14.3364 13.8498L13.613 14.574L10.9204 11.8814L11.6438 11.1572Z" fill="#77B255"/>
<path d="M14.2378 13.751L16.9304 16.4436L16.2063 17.1677L13.5137 14.4751L14.2378 13.751Z" fill="#FFD983"/>
<path d="M13.7193 9.0813L16.4119 11.7739L15.6877 12.4973L12.9951 9.80544L13.7193 9.0813Z" fill="#FFAC33"/>
<path d="M16.3137 11.6758L19.0063 14.3676L18.2821 15.0917L15.5903 12.3992L16.3137 11.6758ZM19.0314 3.76904L21.724 6.46164L20.9998 7.185L18.3072 4.49319L19.0314 3.76904Z" fill="#EA596E"/>
<path d="M21.626 6.36353L24.3186 9.05533L23.5944 9.77948L20.9019 7.08689L21.626 6.36353Z" fill="#FFAC33"/>
<path d="M21.0918 1.64429L23.7844 4.33688L23.0603 5.06103L20.3677 2.36843L21.0918 1.64429Z" fill="#77B255"/>
<path d="M23.7178 4.27124L26.4104 6.96305L25.6862 7.68719L22.9937 4.99538L23.7178 4.27124Z" fill="#FFD983"/>
<path d="M19.4515 0.514669C17.4744 2.49175 17.4109 5.33576 17.5717 8.20802C17.9648 8.22999 18.3578 8.25588 18.7501 8.28177C19.0561 8.30217 19.3581 8.32178 19.6594 8.33982C19.5041 5.76178 19.5033 3.39791 20.9194 1.98179C21.4898 1.43025 21.6687 0.684918 21.2701 0.282441C20.8504 -0.141219 20.0603 -0.107483 19.4515 0.514669Z" fill="#9266CC"/>
<path d="M10.2126 20.0016L10.0926 17.9147C10.0722 17.5656 10.0471 17.2094 10.0346 16.8697C9.80232 16.6374 8.09984 16.5959 7.95312 16.7426C7.96332 17.0878 7.99 17.4361 8.00883 17.7837C8.0308 18.1775 8.10768 19.5685 8.12573 19.8706C8.16809 20.5845 8.20104 21.2875 8.1932 21.9544C8.3964 22.1576 10.0534 22.2972 10.2683 22.0815C10.2801 21.3973 10.2511 20.6999 10.2126 20.0016Z" fill="#3B88C3"/>
<path d="M10.2705 22.0805L8.19221 21.9534C8.17181 23.6865 7.89094 25.2053 6.86866 26.2276C6.46305 26.6332 6.46305 27.2899 6.86866 27.6955C7.07108 27.8979 7.33704 27.9999 7.60222 27.9999C7.8674 27.9999 8.13337 27.8987 8.33578 27.6955C10.2368 25.7953 10.2713 22.0671 10.2705 22.0805Z" fill="#55ACEE"/>
<path d="M19.7903 10.4275C19.3972 10.4055 19.0034 10.3796 18.6111 10.3537C18.3059 10.3333 18.0031 10.3137 17.7026 10.2957C17.858 12.8729 17.8587 15.2376 16.4418 16.6537C15.0265 18.069 12.6658 18.0698 10.0916 17.9145C9.7888 17.8964 8.39778 17.8046 8.00786 17.7827C5.13089 17.621 2.28296 17.6838 0.303525 19.6632C-0.101306 20.0681 -0.101306 20.7247 0.30431 21.1304C0.506725 21.3328 0.772689 21.4348 1.03787 21.4348C1.30305 21.4348 1.56901 21.3336 1.77143 21.1304C3.18755 19.715 5.54906 19.7135 8.12476 19.8688C8.42681 19.8868 9.82018 19.9786 10.2117 20.0006C13.0847 20.1614 15.9303 20.0987 17.9089 18.1208C19.8868 16.1437 19.9511 13.2997 19.7903 10.4275Z" fill="#9266CC"/>
<path d="M19.7903 10.4276C19.7683 10.0345 19.6765 8.64112 19.6585 8.34063C19.6373 7.98758 19.62 7.63924 19.6083 7.29561C19.3447 7.27913 17.9607 7.19126 17.5269 7.16772C17.5371 7.51293 17.552 7.86049 17.5708 8.20805C17.5928 8.60111 17.6846 9.99448 17.7026 10.2957C17.7457 11.0128 17.774 11.7111 17.7661 12.3795C18.0274 12.396 19.409 12.4831 19.8413 12.5066C19.8531 11.8225 19.8295 11.1266 19.7903 10.4276Z" fill="#744EAA"/>
<path d="M27.814 6.80289C27.4845 6.46082 26.7274 6.33137 26.0166 7.07984C24.6005 8.49596 22.2374 8.49674 19.6586 8.34062C19.3573 8.32257 17.9639 8.23 17.5709 8.20803C14.6994 8.04719 11.8546 8.11153 9.87752 10.0886C8.13973 11.8264 7.88083 14.2342 7.95301 16.7416C8.38687 16.7652 9.77239 16.853 10.0344 16.8687C9.95755 14.7073 10.1231 12.7781 11.3454 11.5557C12.7615 10.1396 15.1254 10.1396 17.7035 10.2949C18.0039 10.313 19.3981 10.4048 19.7912 10.4268C22.6634 10.5876 25.5074 10.524 27.4845 8.54696C28.1796 7.86518 28.1435 7.14496 27.814 6.80289Z" fill="#55ACEE"/>
</svg>
