<svg width="36" height="36" viewBox="0 0 36 36" fill="none" xmlns="http://www.w3.org/2000/svg">
<path d="M22.911 14.398C21.829 15.117 20.864 15.957 20.031 16.82C19.904 12.575 18.884 7.085 13.259 4.397C12.146 -1.658 -0.833 1.418 0.328 2.006C2.642 3.176 3.873 6.154 5.362 7.721C8.015 10.513 10.965 10.685 12.433 8.499C15.901 10.753 16.129 15.028 16.023 19.598C16.011 20.103 16 20.573 16 21V35C16 36.104 20 36.104 20 35V23.51C20.542 22.556 22.122 20.005 24.43 18.216C26.016 19.609 28.572 19.164 30.893 16.721C32.382 15.154 33.186 12.177 35.5 11.006C36.721 10.388 22.699 7.012 22.911 14.398Z" fill="#A5DFB2"/>
</svg>
