<svg width="27" height="28" viewBox="0 0 27 28" fill="none" xmlns="http://www.w3.org/2000/svg">
<path d="M26.2507 17.111C23.6202 17.111 16.9951 19.8713 13.9999 22.6783V13.2221C13.9999 12.792 13.6522 12.4443 13.2221 12.4443C12.7928 12.4443 12.4444 12.792 12.4444 13.2221V22.8207C9.52535 19.9647 2.71513 17.111 0.0403502 17.111C-0.682205 17.111 8.48779 27.9937 12.4444 26.9102V27.2221C12.4444 27.6522 12.7928 27.9999 13.2221 27.9999C13.6522 27.9999 13.9999 27.6522 13.9999 27.2221V26.9452C18.035 27.7183 26.9639 17.111 26.2507 17.111Z" fill="#77B255"/>
<path d="M18.6667 10.4354C18.6667 15.3751 17.3391 17.8889 13.2223 17.8889C9.1055 17.8889 7.77783 15.3751 7.77783 10.4354C7.77783 5.49578 11.6667 0 13.2223 0C14.7778 0 18.6667 5.49578 18.6667 10.4354Z" fill="#EA596E"/>
<path d="M16.9515 1.55566C16.5782 1.55566 13.7579 12.6553 13.2158 16.5504C12.6356 12.6553 9.70728 1.55566 9.33317 1.55566C8.55539 1.55566 4.6665 8.55566 4.6665 11.6668C4.6665 14.7779 9.10528 17.889 13.2221 17.889C17.3388 17.889 21.6182 14.7779 21.6182 11.6668C21.6182 8.55566 17.7293 1.55566 16.9515 1.55566Z" fill="#F4ABBA"/>
</svg>
