<svg width="28" height="19" viewBox="0 0 28 19" fill="none" xmlns="http://www.w3.org/2000/svg">
<path d="M27.2222 6.22222C26.7921 6.22222 26.4444 6.56989 26.4444 7V12.4444H1.55556V0.777778C1.55556 0.348444 1.20789 0 0.777778 0C0.347667 0 0 0.348444 0 0.777778V17.8889C0 18.319 0.347667 18.6667 0.777778 18.6667C1.20789 18.6667 1.55556 18.319 1.55556 17.8889V16.3333H26.4444V17.8889C26.4444 18.319 26.7921 18.6667 27.2222 18.6667C27.6523 18.6667 28 18.319 28 17.8889V7C28 6.56989 27.6523 6.22222 27.2222 6.22222Z" fill="#C1694F"/>
<path d="M13.2224 3.88892H11.6669C10.8113 3.88892 10.1113 4.58892 10.1113 5.44447V8.55558H13.2224V3.88892Z" fill="#AA8DD8"/>
<path d="M24.1113 4.83936L13.2224 3.88892C10.7273 3.88892 10.1113 8.55558 10.1113 8.55558H9.3335V13.2222H26.4446V7.00003C26.4446 5.5028 25.6085 4.83936 24.1113 4.83936Z" fill="#55ACEE"/>
<path d="M10.1112 8.55542H3.11122C2.25255 8.55542 1.55566 9.25231 1.55566 10.111V13.2221H9.33344L10.1112 8.55542Z" fill="#BDDDF4"/>
<path d="M1.64422 6.43908C1.42411 7.38252 3.11967 8.39752 5.43278 8.70786C7.74589 9.01741 9.79922 8.5033 10.0201 7.56063C10.2402 6.61719 8.54467 5.60219 6.23155 5.29186C3.91922 4.98152 1.86511 5.49563 1.64422 6.43908Z" fill="#5C913B"/>
<path d="M10.2583 7.77783C10.1541 8.24061 10.1113 8.55561 10.1113 8.55561H26.4447V7.77783H10.2583Z" fill="#226699"/>
<path d="M26.4446 7H10.4629C10.3773 7.28389 10.3096 7.54833 10.2583 7.77778H26.4446V7Z" fill="#3B88C3"/>
<path d="M10.4294 7.0135C11.0214 5.86887 10.1738 4.25435 8.53625 3.40736C6.89867 2.56037 5.09123 2.80165 4.4992 3.94627C3.90718 5.0909 4.75476 6.70542 6.39234 7.55241C8.02991 8.3994 9.83736 8.15812 10.4294 7.0135Z" fill="#F7DECE"/>
<path d="M6.12484 8.07037C6.12484 8.07037 3.15995 6.53659 4.49928 3.94581C5.57106 1.87303 8.53672 3.40681 8.53672 3.40681C8.53672 3.40681 7.05428 2.63992 6.25006 4.1947C5.71417 5.23148 7.93784 6.38103 6.12484 8.07037Z" fill="#292F33"/>
</svg>
