<svg width="37" height="37" viewBox="0 0 37 37" fill="none" xmlns="http://www.w3.org/2000/svg">
<path d="M11.626 7.488C11.514 7.6 11.429 7.735 11.358 7.883L11.35 7.875L0.134 33.141L0.145 33.152C-0.063 33.555 0.285 34.375 0.998 35.089C1.711 35.802 2.531 36.15 2.934 35.942L2.944 35.952L28.21 24.735L28.202 24.726C28.349 24.656 28.484 24.571 28.597 24.457C30.159 22.895 27.626 17.83 22.941 13.144C18.254 8.458 13.189 5.926 11.626 7.488V7.488Z" fill="#DD2E44"/>
<path d="M13 12L0.416 32.506L0.134 33.141L0.145 33.152C-0.063 33.555 0.285 34.375 0.998 35.089C1.23 35.321 1.471 35.497 1.707 35.646L17 17L13 12Z" fill="#EA596E"/>
<path d="M23.012 13.066C27.682 17.738 30.275 22.718 28.801 24.19C27.328 25.664 22.348 23.072 17.675 18.402C13.004 13.73 10.412 8.748 11.885 7.275C13.359 5.802 18.339 8.394 23.012 13.066V13.066Z" fill="#A0041E"/>
<path d="M18.59 13.609C18.391 13.77 18.131 13.854 17.856 13.824C16.988 13.73 16.258 13.428 15.747 12.951C15.206 12.446 14.939 11.768 15.012 11.089C15.14 9.897 16.336 8.803 18.375 9.023C19.168 9.108 19.522 8.853 19.534 8.731C19.548 8.61 19.257 8.285 18.464 8.199C17.596 8.105 16.866 7.803 16.354 7.326C15.813 6.821 15.545 6.143 15.619 5.464C15.749 4.272 16.944 3.178 18.981 3.399C19.559 3.461 19.864 3.342 19.993 3.265C20.096 3.202 20.137 3.142 20.141 3.107C20.153 2.986 19.866 2.661 19.071 2.575C18.522 2.515 18.124 2.023 18.185 1.473C18.244 0.924 18.735 0.527 19.286 0.587C21.323 0.806 22.259 2.129 22.13 3.322C22 4.516 20.805 5.608 18.766 5.389C18.188 5.326 17.886 5.446 17.756 5.523C17.653 5.585 17.611 5.646 17.607 5.68C17.594 5.802 17.883 6.126 18.678 6.212C20.715 6.432 21.651 7.754 21.522 8.947C21.393 10.139 20.198 11.233 18.16 11.012C17.582 10.95 17.278 11.07 17.148 11.146C17.044 11.21 17.004 11.27 17 11.304C16.987 11.425 17.276 11.75 18.07 11.836C18.618 11.896 19.017 12.389 18.956 12.938C18.928 13.212 18.789 13.449 18.59 13.609V13.609Z" fill="#AA8DD8"/>
<path d="M30.661 22.857C32.634 22.3 33.995 23.18 34.319 24.335C34.643 25.489 33.941 26.95 31.969 27.505C31.199 27.721 30.968 28.089 30.999 28.206C31.033 28.324 31.424 28.518 32.192 28.301C34.164 27.746 35.525 28.626 35.849 29.78C36.175 30.935 35.471 32.394 33.498 32.95C32.729 33.166 32.497 33.535 32.531 33.652C32.564 33.769 32.954 33.963 33.723 33.747C34.253 33.598 34.807 33.907 34.956 34.438C35.104 34.97 34.795 35.522 34.263 35.672C32.292 36.227 30.93 35.349 30.604 34.193C30.28 33.039 30.983 31.58 32.957 31.024C33.727 30.807 33.958 30.44 33.924 30.322C33.892 30.205 33.502 30.01 32.734 30.226C30.76 30.782 29.4 29.904 29.075 28.747C28.75 27.593 29.453 26.134 31.426 25.577C32.194 25.362 32.425 24.992 32.393 24.876C32.359 24.758 31.97 24.564 31.201 24.78C30.669 24.93 30.118 24.62 29.968 24.089C29.819 23.559 30.129 23.007 30.661 22.857V22.857Z" fill="#77B255"/>
<path d="M23.001 20.16C22.707 20.16 22.417 20.031 22.219 19.785C21.874 19.353 21.945 18.724 22.375 18.379C22.593 18.204 27.793 14.12 35.142 15.171C35.689 15.249 36.069 15.755 35.991 16.302C35.913 16.848 35.411 17.232 34.859 17.15C28.366 16.228 23.672 19.904 23.626 19.941C23.44 20.089 23.22 20.16 23.001 20.16V20.16Z" fill="#AA8DD8"/>
<path d="M5.754 16C5.659 16 5.562 15.986 5.466 15.958C4.937 15.799 4.637 15.242 4.796 14.713C5.929 10.94 6.956 4.919 5.694 3.349C5.553 3.171 5.34 2.996 4.852 3.033C3.914 3.105 4.003 5.084 4.004 5.104C4.046 5.655 3.632 6.135 3.082 6.176C2.523 6.21 2.051 5.804 2.01 5.253C1.907 3.874 2.336 1.218 4.702 1.039C5.758 0.959 6.635 1.326 7.254 2.096C9.625 5.047 7.218 13.602 6.712 15.288C6.582 15.721 6.184 16 5.754 16Z" fill="#77B255"/>
<path d="M25.5 11C26.3284 11 27 10.3284 27 9.5C27 8.67157 26.3284 8 25.5 8C24.6716 8 24 8.67157 24 9.5C24 10.3284 24.6716 11 25.5 11Z" fill="#5C913B"/>
<path d="M2 20C3.10457 20 4 19.1046 4 18C4 16.8954 3.10457 16 2 16C0.89543 16 0 16.8954 0 18C0 19.1046 0.89543 20 2 20Z" fill="#9266CC"/>
<path d="M32.5 21C33.3284 21 34 20.3284 34 19.5C34 18.6716 33.3284 18 32.5 18C31.6716 18 31 18.6716 31 19.5C31 20.3284 31.6716 21 32.5 21Z" fill="#5C913B"/>
<path d="M23.5 33C24.3284 33 25 32.3284 25 31.5C25 30.6716 24.3284 30 23.5 30C22.6716 30 22 30.6716 22 31.5C22 32.3284 22.6716 33 23.5 33Z" fill="#5C913B"/>
<path d="M28 6C29.1046 6 30 5.10457 30 4C30 2.89543 29.1046 2 28 2C26.8954 2 26 2.89543 26 4C26 5.10457 26.8954 6 28 6Z" fill="#FFCC4D"/>
<path d="M32.5 10C33.3284 10 34 9.32843 34 8.5C34 7.67157 33.3284 7 32.5 7C31.6716 7 31 7.67157 31 8.5C31 9.32843 31.6716 10 32.5 10Z" fill="#FFCC4D"/>
<path d="M29.5 14C30.3284 14 31 13.3284 31 12.5C31 11.6716 30.3284 11 29.5 11C28.6716 11 28 11.6716 28 12.5C28 13.3284 28.6716 14 29.5 14Z" fill="#FFCC4D"/>
<path d="M7.5 25C8.32843 25 9 24.3284 9 23.5C9 22.6716 8.32843 22 7.5 22C6.67157 22 6 22.6716 6 23.5C6 24.3284 6.67157 25 7.5 25Z" fill="#FFCC4D"/>
</svg>
