<svg width="28" height="28" viewBox="0 0 28 28" fill="none" xmlns="http://www.w3.org/2000/svg">
<path d="M28 14C28 21.7319 21.7319 28 14 28C6.26811 28 0 21.7319 0 14C0 6.26811 6.26811 0 14 0C21.7319 0 28 6.26811 28 14Z" fill="#E1E8ED"/>
<path d="M23.3332 14.0001C23.3332 19.1552 19.1549 23.3334 13.9998 23.3334C8.84473 23.3334 4.6665 19.1552 4.6665 14.0001C4.6665 8.84497 8.84473 4.66675 13.9998 4.66675C19.1549 4.66675 23.3332 8.84497 23.3332 14.0001Z" fill="#CCD6DD"/>
<path d="M22.5554 13.9999C22.5554 18.7249 18.7249 22.5554 13.9999 22.5554C9.27411 22.5554 5.44434 18.7249 5.44434 13.9999C5.44434 9.27411 9.27489 5.44434 13.9999 5.44434C18.7249 5.44434 22.5554 9.27411 22.5554 13.9999Z" fill="#E1E8ED"/>
<path d="M0.777778 1.55556C1.20733 1.55556 1.55556 1.20733 1.55556 0.777778C1.55556 0.348223 1.20733 0 0.777778 0C0.348223 0 0 0.348223 0 0.777778C0 1.20733 0.348223 1.55556 0.777778 1.55556Z" fill="#99AAB5"/>
<path d="M0 0.777832H1.55556V6.22228H0V0.777832Z" fill="#99AAB5"/>
<path d="M3.88911 1.55556C4.31866 1.55556 4.66688 1.20733 4.66688 0.777778C4.66688 0.348223 4.31866 0 3.88911 0C3.45955 0 3.11133 0.348223 3.11133 0.777778C3.11133 1.20733 3.45955 1.55556 3.88911 1.55556Z" fill="#99AAB5"/>
<path d="M3.11133 0.777832H4.66688V6.22228H3.11133V0.777832Z" fill="#99AAB5"/>
<path d="M6.99995 1.55556C7.4295 1.55556 7.77772 1.20733 7.77772 0.777778C7.77772 0.348223 7.4295 0 6.99995 0C6.57039 0 6.22217 0.348223 6.22217 0.777778C6.22217 1.20733 6.57039 1.55556 6.99995 1.55556Z" fill="#99AAB5"/>
<path d="M6.22238 0.777832H7.77794V6.22228H6.22238V0.777832ZM2.3335 10.8889H5.44461V26.4445H2.3335V10.8889Z" fill="#99AAB5"/>
<path d="M3.88905 28C4.74816 28 5.44461 27.3036 5.44461 26.4445C5.44461 25.5854 4.74816 24.8889 3.88905 24.8889C3.02994 24.8889 2.3335 25.5854 2.3335 26.4445C2.3335 27.3036 3.02994 28 3.88905 28Z" fill="#99AAB5"/>
<path d="M6.22222 6.22217C6.22222 6.6515 5.87378 6.99995 5.44444 6.99995C5.01511 6.99995 4.66667 6.6515 4.66667 6.22217H3.11111C3.11111 6.6515 2.76267 6.99995 2.33333 6.99995C1.904 6.99995 1.55556 6.6515 1.55556 6.22217H0C0 9.22906 0.777778 11.6666 3.88889 11.6666C7 11.6666 7.77778 9.22906 7.77778 6.22217H6.22222Z" fill="#99AAB5"/>
<path d="M0.777778 6.99989C1.20733 6.99989 1.55556 6.65167 1.55556 6.22211C1.55556 5.79256 1.20733 5.44434 0.777778 5.44434C0.348223 5.44434 0 5.79256 0 6.22211C0 6.65167 0.348223 6.99989 0.777778 6.99989Z" fill="#99AAB5"/>
<path d="M3.88911 6.99989C4.31866 6.99989 4.66688 6.65167 4.66688 6.22211C4.66688 5.79256 4.31866 5.44434 3.88911 5.44434C3.45955 5.44434 3.11133 5.79256 3.11133 6.22211C3.11133 6.65167 3.45955 6.99989 3.88911 6.99989Z" fill="#99AAB5"/>
<path d="M6.99995 6.99989C7.4295 6.99989 7.77772 6.65167 7.77772 6.22211C7.77772 5.79256 7.4295 5.44434 6.99995 5.44434C6.57039 5.44434 6.22217 5.79256 6.22217 6.22211C6.22217 6.65167 6.57039 6.99989 6.99995 6.99989Z" fill="#99AAB5"/>
<path d="M23.3335 10.8889H26.4446V26.4445H23.3335V10.8889Z" fill="#99AAB5"/>
<path d="M24.8891 28C25.7482 28 26.4446 27.3036 26.4446 26.4445C26.4446 25.5854 25.7482 24.8889 24.8891 24.8889C24.0299 24.8889 23.3335 25.5854 23.3335 26.4445C23.3335 27.3036 24.0299 28 24.8891 28Z" fill="#99AAB5"/>
<path d="M24.8889 0C25.6667 0 26.4444 0.777778 26.4444 2.33333V14.7778C26.4444 14.7778 21 16.3333 21 8.55556C21 3.88889 23.3333 0 24.8889 0Z" fill="#99AAB5"/>
</svg>
