<svg width="28" height="28" viewBox="0 0 28 28" fill="none" xmlns="http://www.w3.org/2000/svg">
<path d="M28 14C28 21.7319 21.7319 28 14 28C6.26889 28 0 21.7319 0 14C0 6.26889 6.26889 0 14 0C21.7319 0 28 6.26889 28 14Z" fill="#FFCC4D"/>
<path d="M8.94444 13.9999C10.0183 13.9999 10.8889 12.0847 10.8889 9.72211C10.8889 7.35956 10.0183 5.44434 8.94444 5.44434C7.87056 5.44434 7 7.35956 7 9.72211C7 12.0847 7.87056 13.9999 8.94444 13.9999Z" fill="#664500"/>
<path d="M19.0558 13.9999C20.1297 13.9999 21.0002 12.0847 21.0002 9.72211C21.0002 7.35956 20.1297 5.44434 19.0558 5.44434C17.9819 5.44434 17.1113 7.35956 17.1113 9.72211C17.1113 12.0847 17.9819 13.9999 19.0558 13.9999Z" fill="#664500"/>
<path d="M13.9999 17.1109C11.182 17.1109 9.31222 16.7827 6.99989 16.3331C6.47178 16.2312 5.44434 16.3331 5.44434 17.8887C5.44434 20.9998 9.01822 24.8887 13.9999 24.8887C18.9808 24.8887 22.5554 20.9998 22.5554 17.8887C22.5554 16.3331 21.528 16.2305 20.9999 16.3331C18.6876 16.7827 16.8178 17.1109 13.9999 17.1109Z" fill="#664500"/>
<path d="M7 17.8887C7 17.8887 9.33333 18.6664 14 18.6664C18.6667 18.6664 21 17.8887 21 17.8887C21 17.8887 19.4444 20.9998 14 20.9998C8.55556 20.9998 7 17.8887 7 17.8887Z" fill="white"/>
</svg>
