<svg width="28" height="28" viewBox="0 0 28 28" fill="none" xmlns="http://www.w3.org/2000/svg">
<path d="M22.5643 12.8144L22.573 12.8097C21.4209 13.3283 20.1352 13.4344 18.8982 13.102C17.6203 12.7594 16.5358 11.9837 15.7963 10.9047C15.8112 10.9267 15.823 10.9503 15.8387 10.9723L14.7236 10.856L14.5562 11.8792C15.357 13.0132 16.4627 13.8714 17.7539 14.3736L17.6879 14.618C17.3673 15.8133 17.4718 17.2082 17.5826 18.6857C17.7272 20.6111 17.8773 22.6025 17.06 24.1342C16.2914 25.5716 14.7644 26.4282 12.9695 26.4282H12.9443C11.2712 26.4204 9.75128 25.6581 9.16187 24.5303C8.73907 23.7209 8.6927 22.6198 8.64319 21.4559C8.56381 19.5753 8.47501 17.4448 6.86081 15.6066L3.75735 12.0694L2.57617 13.1059L5.67962 16.6424C6.92761 18.0656 7.00148 19.8221 7.07299 21.522C7.12722 22.8077 7.18302 24.1374 7.7685 25.258C8.63376 26.9131 10.6621 27.9898 12.9373 28H12.9703C15.3554 28 17.4011 26.8337 18.4463 24.8745C19.4789 22.9405 19.3045 20.6174 19.1497 18.5678C19.0491 17.2287 18.954 15.9626 19.2055 15.0266L19.2723 14.7767C19.6267 14.831 19.9811 14.8655 20.3348 14.8655C21.3187 14.8647 22.2893 14.6478 23.1985 14.2408L23.3683 13.2136L22.5643 12.8144Z" fill="#31373D"/>
<path d="M0.780704 14.6811C-0.364328 13.3766 -0.234657 11.3898 1.06991 10.2448C2.37447 9.09978 4.36119 9.22945 5.50622 10.534C6.65125 11.8394 6.52158 13.8253 5.21701 14.9703C3.91245 16.1154 1.92573 15.9865 0.780704 14.6811Z" fill="#99AAB5"/>
<path d="M1.96278 13.6444C1.38987 12.9921 1.4551 11.9988 2.10738 11.4266C2.75966 10.8537 3.75302 10.919 4.32514 11.5712C4.89805 12.2235 4.83282 13.2169 4.18054 13.789C3.52825 14.3619 2.5349 14.2967 1.96278 13.6444Z" fill="#31373D"/>
<path d="M23.2042 14.2492L22.5645 12.8142C24.086 12.1344 25.2067 10.8228 25.6381 9.21565L26.2495 6.93895C26.4743 6.10198 25.976 5.2383 25.1391 5.01275L25.5477 3.49442C27.2217 3.94473 28.2174 5.6721 27.7679 7.34603L27.1564 9.62274C26.6008 11.6896 25.1603 13.3753 23.2042 14.2492ZM14.5548 11.8806C13.3328 10.154 12.9461 7.9936 13.4939 5.95345L14.1053 3.67675C14.5548 2.00203 16.283 1.00632 17.9561 1.45584L17.5482 2.97417C16.7097 2.7494 15.8476 3.24765 15.6228 4.08462L15.0114 6.36211C14.5847 7.94881 14.8857 9.62981 15.8374 10.9729L14.5548 11.8806Z" fill="#99AAB5"/>
<path d="M17.5214 4.59411C16.8927 4.42514 16.5202 3.77836 16.6891 3.14965L17.3006 0.87295C17.4695 0.244244 18.1163 -0.128265 18.745 0.0407C19.3737 0.209665 19.7462 0.856446 19.5773 1.48515L18.9658 3.76186C18.7969 4.39056 18.1501 4.76307 17.5214 4.59411ZM24.3523 6.42914C23.7236 6.26018 23.3511 5.6134 23.52 4.98469L24.1314 2.70799C24.3004 2.07928 24.9472 1.70677 25.5759 1.87574C26.2046 2.0447 26.5771 2.69148 26.4089 3.32019L25.7975 5.59689C25.6278 6.2256 24.981 6.59811 24.3523 6.42914Z" fill="#31373D"/>
</svg>
