<svg width="36" height="36" viewBox="0 0 36 36" fill="none" xmlns="http://www.w3.org/2000/svg">
<path d="M22.855 0.734717L7.87497 7.00072L20.412 16.7337C23.045 18.9577 26.789 19.6707 30.182 18.2517C35.008 16.2337 37.278 10.6757 35.254 5.83872C33.232 1.00072 27.68 -1.28428 22.855 0.734717ZM12.893 18.6587L2.04997 10.2607L0.136968 23.5057C-0.397032 26.3607 0.638968 29.4077 3.09497 31.3087C6.58897 34.0137 11.613 33.3747 14.319 29.8827C17.024 26.3907 16.386 21.3657 12.893 18.6587V18.6587ZM28.232 25.6737L20.076 20.9837L20.043 30.2067C19.955 32.2067 20.947 34.1867 22.793 35.2477C25.424 36.7597 28.77 35.8417 30.272 33.1967C31.771 30.5527 30.861 27.1837 28.232 25.6737Z" fill="#5DADEC"/>
</svg>
