<svg width="20" height="28" viewBox="0 0 20 28" fill="none" xmlns="http://www.w3.org/2000/svg">
<path d="M5.68064 16.7412C5.22495 16.9926 3.90815 17.7461 3.10204 18.4728C2.63377 18.8948 2.69506 19.202 2.84355 19.9429L2.85691 20.0096C3.00304 20.7419 4.51155 25.54 4.80775 26.4774L5.72542 26.2487C5.73642 25.7608 5.75921 24.048 5.584 22.9449C5.52586 22.5757 5.46693 22.131 5.41351 21.7279C5.35851 21.3099 5.30508 20.9147 5.26894 20.7277C5.20845 20.4166 5.30823 20.2171 5.59186 20.0796C6.1984 19.7857 6.72088 19.5524 6.9778 19.44L5.68064 16.7412ZM14.0662 20.9902C13.6474 20.9391 13.2514 20.8896 13.0621 20.8778C12.7455 20.8582 12.5765 20.7112 12.5161 20.4017C12.3841 19.7401 12.2898 19.176 12.245 18.8995L9.30655 19.4754C9.4354 19.9806 9.83374 21.4435 10.3342 22.4075C10.6241 22.9661 10.9368 22.9842 11.6903 23.0274L11.7594 23.0314C12.5058 23.0761 17.5279 22.8224 18.5108 22.7721L18.521 21.8253C18.0519 21.6926 16.4004 21.2392 15.2887 21.13C14.9147 21.0954 14.47 21.0404 14.0662 20.9902Z" fill="#F7DECE"/>
<path d="M17.1725 23.1767L17.0421 22.9363C17.0256 22.8978 17.0445 22.853 17.0845 22.8396C17.2102 22.7964 17.464 22.6801 17.5528 22.6338C17.4758 22.8098 17.3878 23.0911 17.2896 23.1759C17.2519 23.2081 17.1922 23.2223 17.1725 23.1767Z" fill="#8899A6"/>
<path d="M19.074 21.3115C18.9718 21.2298 18.7385 21.1897 18.5923 21.1756C18.491 21.1653 18.2278 21.1575 18.0062 21.1701C17.9064 21.1756 17.7925 21.1881 17.7462 21.2015C17.6008 21.2439 17.5372 21.3044 17.5026 21.3468C17.461 21.3979 17.457 21.4521 17.4665 21.4796C17.505 21.592 17.6896 21.786 17.7697 21.9707C17.7964 22.0319 17.8122 22.0924 17.8067 22.1482C17.787 22.3509 17.5285 22.6456 17.3353 22.864C17.219 22.9952 17.1263 23.0989 17.1223 23.139C17.1184 23.1822 17.1302 23.2191 17.1498 23.2552V23.2568C17.2025 23.3535 17.318 23.454 17.3965 23.718C17.4476 23.8885 17.6865 24.6648 17.6865 24.6648C17.7438 24.8627 17.82 24.9107 17.8522 25.0175C17.919 25.2352 18.0369 25.8197 18.095 26.0043C18.1531 26.189 18.2938 26.2683 18.4014 26.2833C18.5098 26.2982 18.5719 26.273 18.5719 26.273C18.5719 26.273 18.8249 26.1591 18.9923 25.2108C19.1132 24.5257 19.0064 24.4196 18.9153 23.3904C18.8257 22.3596 19.074 21.3115 19.074 21.3115Z" fill="#BE1931"/>
<path d="M18.8624 22.8421C18.6904 22.7714 18.2968 22.5121 18.1868 22.2332C18.087 21.981 18.0194 21.2998 18.0068 21.1702C18.2182 21.1513 18.5427 21.1655 18.6472 21.1749C18.7847 21.1883 18.9434 21.1993 19.0384 21.2802L19.0746 21.3116C19.0738 21.3116 18.9057 22.3927 18.8624 22.8421Z" fill="#DD2E44"/>
<path d="M17.351 23.6222C17.2921 23.6222 17.2363 23.5892 17.2088 23.5319C17.1711 23.4533 17.2049 23.3598 17.2834 23.3229L17.5341 23.2042C17.6158 23.1665 17.7069 23.2011 17.7439 23.2789C17.7808 23.3574 17.7478 23.4509 17.6692 23.4879L17.4186 23.6065C17.3966 23.6175 17.373 23.6222 17.351 23.6222ZM17.5113 24.0811C17.4445 24.0811 17.3832 24.0386 17.362 23.9718C17.3353 23.8894 17.3809 23.8006 17.4642 23.7746L17.7423 23.6859C17.8209 23.6584 17.9128 23.7047 17.9395 23.788C17.9662 23.8705 17.9206 23.9593 17.8374 23.9852L17.5592 24.074C17.5435 24.0787 17.5278 24.0811 17.5113 24.0811ZM17.6464 24.5485C17.5726 24.5485 17.5074 24.4975 17.4924 24.4228C17.4759 24.338 17.5302 24.2547 17.615 24.2374L17.8759 24.184C17.9654 24.1659 18.044 24.2217 18.0613 24.3065C18.0778 24.3914 18.0236 24.4747 17.9387 24.492L17.6779 24.5454C17.6669 24.547 17.6566 24.5485 17.6464 24.5485ZM19.6813 21.5056C19.6766 21.4844 19.6617 21.405 19.6067 21.3076C19.5886 21.2746 19.5462 21.2644 19.5038 21.2597C19.4511 21.2526 19.0638 21.1968 19.0567 21.2754C19.0567 21.2754 19.0552 21.3917 19.0002 21.4718C18.9452 21.552 18.9074 21.7484 18.8933 21.8953C18.8792 22.0414 18.8163 22.5922 18.8305 22.9788C18.8446 23.3653 18.964 24.0653 18.9703 24.2987C18.9758 24.532 18.9703 24.895 18.9208 25.1637C18.8713 25.4324 18.8179 25.6713 18.777 25.819C18.7244 26.0091 18.6537 26.1639 18.5727 26.2731C18.5727 26.2731 18.8784 26.2527 19.1125 25.8001C19.2971 25.4434 19.4009 25.1001 19.4394 24.7654C19.4425 24.7402 19.5218 23.8477 19.5603 23.4014C19.5878 23.0754 19.635 22.5545 19.635 22.5545C19.6939 21.9369 19.7081 21.6235 19.6813 21.5056Z" fill="#CCD6DD"/>
<path d="M4.07375 25.3341L4.26703 25.1409C4.29924 25.1142 4.34717 25.1197 4.37231 25.1542C4.44931 25.2626 4.63315 25.4732 4.70308 25.5447C4.51216 25.5211 4.21753 25.5164 4.10832 25.4465C4.06589 25.419 4.03525 25.3656 4.07375 25.3341Z" fill="#8899A6"/>
<path d="M6.40166 26.6275C6.45116 26.5065 6.42288 26.2716 6.39538 26.127C6.37574 26.0272 6.30895 25.7719 6.23431 25.5637C6.20053 25.4702 6.15653 25.3641 6.1306 25.3233C6.04889 25.196 5.97268 25.1528 5.92161 25.1316C5.86112 25.1056 5.80769 25.1174 5.78412 25.1347C5.68748 25.2038 5.55313 25.4356 5.39992 25.5652C5.34885 25.6085 5.29543 25.6399 5.23964 25.6509C5.04008 25.6894 4.68417 25.526 4.41939 25.4018C4.26069 25.328 4.13498 25.2683 4.09569 25.2761C4.05327 25.2848 4.02105 25.306 3.99198 25.335L3.99041 25.3358H3.9912C3.91342 25.4136 3.84978 25.5535 3.61879 25.7035C3.47029 25.8002 2.79304 26.2504 2.79304 26.2504C2.6194 26.3611 2.59505 26.4484 2.50234 26.5096C2.3122 26.6353 1.7858 26.9143 1.62473 27.0227C1.46445 27.1311 1.42753 27.2882 1.44403 27.3959C1.46053 27.5035 1.50217 27.5562 1.50217 27.5562C1.50217 27.5562 1.68287 27.7667 2.63983 27.6575C3.33123 27.5789 3.40194 27.4462 4.36361 27.0667C5.32528 26.6872 6.40166 26.6275 6.40166 26.6275Z" fill="#BE1931"/>
<path d="M4.87402 26.8591C4.89288 26.6736 5.02959 26.2234 5.26608 26.038C5.479 25.8715 6.11383 25.6122 6.23403 25.5635C6.3126 25.7607 6.39117 26.0757 6.41081 26.1787C6.43674 26.3146 6.4721 26.4694 6.42103 26.5841L6.40138 26.6281C6.40138 26.6273 5.31715 26.7726 4.87402 26.8591Z" fill="#DD2E44"/>
<path d="M4.03173 25.9509C3.98852 25.9509 3.9461 25.9336 3.91467 25.8983L3.72925 25.6916C3.67189 25.6272 3.67739 25.5274 3.74182 25.4701C3.80703 25.4127 3.90445 25.4174 3.96417 25.4827L4.1488 25.6893C4.20616 25.7537 4.20066 25.8535 4.13623 25.9108C4.10559 25.9376 4.06945 25.9509 4.03173 25.9509ZM3.61611 26.2699C3.56661 26.2699 3.51633 26.2455 3.48647 26.2008L3.32227 25.9588C3.27355 25.8865 3.29162 25.7891 3.36391 25.7404C3.43383 25.6924 3.53361 25.7097 3.58154 25.782L3.74575 26.024C3.79446 26.0963 3.77639 26.1937 3.70411 26.2424C3.67818 26.2613 3.64754 26.2699 3.61611 26.2699ZM3.16827 26.5252C3.11249 26.5252 3.05749 26.4954 3.02921 26.442L2.90428 26.207C2.86343 26.1301 2.8925 26.035 2.9695 25.9941C3.04335 25.9533 3.14077 25.9816 3.18241 26.0593L3.30734 26.2943C3.34819 26.3713 3.31912 26.4663 3.24213 26.5072C3.21934 26.5197 3.19341 26.5252 3.16827 26.5252ZM6.38799 27.2646C6.40684 27.2544 6.47913 27.2174 6.55691 27.1373C6.58284 27.1106 6.58126 27.0674 6.57419 27.0249C6.56555 26.9723 6.50898 26.5857 6.43198 26.6007C6.43198 26.6007 6.31963 26.6321 6.22771 26.6022C6.13578 26.5724 5.93622 26.592 5.79166 26.6195C5.64709 26.6478 5.10183 26.7437 4.73492 26.867C4.36801 26.9904 3.73161 27.3039 3.50926 27.3761C3.28691 27.4476 2.93728 27.5451 2.66544 27.5741C2.39359 27.6032 2.14925 27.6197 1.99682 27.6228C1.79962 27.626 1.6307 27.6032 1.50342 27.5561C1.50342 27.5561 1.61027 27.8436 2.10996 27.9395C2.50437 28.0157 2.86343 28.0173 3.19499 27.9591C3.22013 27.9544 4.09852 27.7776 4.53693 27.6873C4.85748 27.6213 5.36975 27.5183 5.36975 27.5183C5.97786 27.3997 6.28271 27.3243 6.38799 27.2646Z" fill="#CCD6DD"/>
<path d="M5.36701 16.6524C5.94684 16.3522 7.86233 15.4047 9.17127 15.2696C9.29069 15.257 10.3702 18.3369 10.2249 18.3832C9.62539 18.5765 8.11846 19.088 6.97687 19.6937C6.85587 19.7582 6.71131 19.7283 6.63667 19.623C6.29804 19.1477 5.41965 17.8497 5.22402 16.9234C5.20123 16.815 5.26173 16.7066 5.36701 16.6524Z" fill="#A0041E"/>
<path d="M9.13654 19.7151C8.98254 19.0905 8.51271 17.0352 8.67613 15.7482C8.69106 15.6304 11.5753 15.21 11.5753 15.21C11.7128 15.1935 12.0467 17.6331 12.3649 18.8674C12.3987 18.9978 12.339 19.1298 12.2227 19.1777C11.6986 19.3938 10.2789 19.939 9.36046 19.9139C9.2536 19.9108 9.16482 19.8275 9.13654 19.7151Z" fill="#BE1931"/>
<path d="M6.7157 8.62193C6.62614 9.12477 6.9192 9.74624 8.08122 9.9898C9.24324 10.2334 10.0878 10.2043 10.6928 10.1611C11.2059 10.1241 11.1352 10.909 11.2514 11.7309C11.3677 12.5558 11.4408 13.6314 11.3944 13.7996C11.3159 14.0832 10.8272 14.1759 11.0495 14.6819C11.2719 15.1871 11.308 15.4636 11.7896 15.3026C12.2712 15.1415 12.7497 14.9671 12.8864 14.7062C13.0231 14.4454 12.5486 13.8695 12.5415 13.5568C12.536 13.3258 12.7717 10.4361 12.7576 10.0959C12.7403 9.68103 12.7301 9.11298 12.063 8.85292C11.396 8.59286 8.83547 7.93053 8.15664 7.79854C7.4401 7.65947 6.83434 7.95489 6.7157 8.62193Z" fill="#F7DECE"/>
<path d="M8.04652 4.98201C8.29008 4.66695 8.4755 4.2969 8.56585 3.83885C8.88719 2.20228 7.94202 0.638774 6.45395 0.347287C4.96665 0.0550142 2.93175 1.15575 2.97731 2.82296C3.0221 4.47839 3.94291 6.91949 5.32885 6.5078C5.69498 6.39937 6.06111 6.27995 6.40916 6.13539C6.55766 6.31138 6.66451 6.98471 6.60322 7.5614C6.44609 9.03062 8.47393 9.18382 8.62949 7.71224C8.75284 6.54787 8.02609 5.80776 8.04652 4.98201Z" fill="#F7DECE"/>
<path d="M12.2959 1.93428C11.2659 1.92328 10.3348 0.865756 9.27495 1.54066C9.06753 1.67265 8.91668 1.80543 8.8004 1.93585C8.61655 1.37723 8.3007 0.861828 7.7798 0.5232C7.27068 0.191643 6.64606 -0.0558456 6.05602 0.0109371C2.45996 0.416348 2.65481 3.01695 2.92823 3.26051C3.20164 3.50407 3.94883 2.8111 4.50116 2.73489C4.75886 2.69875 5.31905 2.69325 5.61604 3.11987C5.85645 3.46557 5.93895 4.16482 5.93895 4.16482C5.93895 4.16482 5.94838 3.36972 5.97116 3.09001C5.99238 2.82917 6.25087 2.52904 6.60049 2.91559C6.90455 3.25186 6.74977 3.91184 6.53842 3.98097C6.37579 4.0344 6.63978 4.43274 7.04754 4.73601C7.7908 5.28913 8.36827 5.07228 8.45077 5.04164C8.53405 5.011 8.81611 4.94893 8.95989 3.99433C8.98032 3.86155 8.99446 3.71934 9.0031 3.57242C9.29694 3.82698 9.77856 4.12947 10.4385 4.13418C11.1684 4.13968 12.4962 3.76806 13.256 2.8606C13.8405 2.16213 14.0809 1.01032 14.0809 1.01032C13.7706 1.59015 13.0729 1.94292 12.2959 1.93428Z" fill="#292F33"/>
<path d="M10.5053 8.38147C9.93331 7.04346 9.10442 6.34106 7.96833 6.72054C6.95873 7.05839 6.45825 7.62486 6.16048 8.26048C6.01591 8.56925 5.45258 9.77919 5.79435 10.5649C6.46296 12.1017 7.55663 15.1713 7.74912 16.111C7.74912 16.111 8.00211 16.3671 9.63711 16.1613C11.0694 15.9806 11.7836 15.8439 11.7836 15.8439C11.566 13.8058 11.4285 10.5429 10.5053 8.38147Z" fill="#DD2E44"/>
<path d="M8.60232 8.48208C8.14898 8.18981 7.42459 8.22202 6.71355 9.25441C6.00251 10.2868 5.68588 11.1212 5.4816 11.7277C5.30797 12.2423 4.57257 11.8534 3.72482 11.6319C2.87393 11.4087 1.79598 11.041 1.65141 10.9271C1.40707 10.7346 1.51628 10.2216 0.933304 10.231C0.35033 10.2412 0.0667 10.1634 0.027416 10.6985C-0.0118679 11.2335 -0.0377953 11.7702 0.160982 12.0098C0.359758 12.2494 1.11323 12.0224 1.42121 12.1426C1.64827 12.2313 4.36672 13.6393 4.70378 13.7642C5.11548 13.9166 5.67252 14.1382 6.19736 13.5945C6.72219 13.0508 8.41219 10.8273 8.8176 10.2192C9.24422 9.57968 9.20337 8.86942 8.60232 8.48208Z" fill="#F7DECE"/>
</svg>
